# Blender v2.83.4 OBJ File: ''
# www.blender.org
mtllib skydome.mtl
o Cube
v 100.000000 100.000000 -100.000000
v 100.000000 -100.000000 -100.000000
v 100.000000 100.000000 100.000000
v 100.000000 -100.000000 100.000000
v -100.000000 100.000000 -100.000000
v -100.000000 -100.000000 -100.000000
v -100.000000 100.000000 100.000000
v -100.000000 -100.000000 100.000000
vt 1.000000 0.000000
vt 0.000000 1.000000
vt 1.000000 1.000000
vt 0.000000 0.000000
vt 1.000000 1.000000
vt 1.000000 0.000000
vt 1.000000 0.000000
vt 0.000000 1.000000
vt 1.000000 1.000000
vt 0.000000 1.000000
vt 0.000000 0.000000
vt 1.000000 0.000000
vt 0.000000 0.000000
vt 0.000000 0.000000
vt 1.000000 1.000000
vt 0.000000 1.000000
vn 0.0000 -1.0000 0.0000
vn 0.0000 0.0000 -1.0000
vn 1.0000 0.0000 0.0000
vn 0.0000 1.0000 0.0000
vn -1.0000 0.0000 0.0000
vn 0.0000 0.0000 1.0000
usemtl Material
s off
f 3/1/1 5/2/1 1/3/1
f 8/4/2 3/5/2 4/6/2
f 6/7/3 7/8/3 8/4/3
f 8/4/4 2/9/4 6/10/4
f 4/11/5 1/3/5 2/12/5
f 2/12/6 5/2/6 6/13/6
f 3/1/1 7/14/1 5/2/1
f 8/4/2 7/8/2 3/5/2
f 6/7/3 5/15/3 7/8/3
f 8/4/4 4/6/4 2/9/4
f 4/11/5 3/16/5 1/3/5
f 2/12/6 1/3/6 5/2/6
