# Blender v2.92.0 OBJ File: 'human.blend'
# www.blender.org
mtllib human.mtl
o head_立方体.003
v -1.000000 2.000000 1.000000
v -1.000000 4.000000 1.000000
v -1.000000 2.000000 -1.000000
v -1.000000 4.000000 -1.000000
v 1.000000 2.800000 0.200000
v 1.000000 3.200000 0.200000
v 1.000000 2.800000 -0.200000
v 1.000000 3.200000 -0.200000
v -0.500000 -5.000000 -0.050000
v -0.500000 -2.000000 -0.050000
v -0.500000 -5.000000 -1.050000
v -0.500000 -2.000000 -1.050000
v 0.500000 -5.000000 -0.050000
v 0.500000 -2.000000 -0.050000
v 0.500000 -5.000000 -1.050000
v 0.500000 -2.000000 -1.050000
v -0.500000 -5.000000 1.050000
v -0.500000 -2.000000 1.050000
v -0.500000 -5.000000 0.050000
v -0.500000 -2.000000 0.050000
v 0.500000 -5.000000 1.050000
v 0.500000 -2.000000 1.050000
v 0.500000 -5.000000 0.050000
v 0.500000 -2.000000 0.050000
v -0.500000 0.500000 -1.550000
v -0.500000 1.500000 -1.550000
v -0.500000 0.500000 -4.550000
v -0.500000 1.500000 -4.550000
v 0.500000 0.500000 -1.550000
v 0.500000 1.500000 -1.550000
v 0.500000 0.500000 -4.550000
v 0.500000 1.500000 -4.550000
v -0.500000 0.500000 4.550000
v -0.500000 1.500000 4.550000
v -0.500000 0.500000 1.550000
v -0.500000 1.500000 1.550000
v 0.500000 0.500000 4.550000
v 0.500000 1.500000 4.550000
v 0.500000 0.500000 1.550000
v 0.500000 1.500000 1.550000
v -0.500000 -1.500000 1.050000
v -0.500000 1.500000 1.050000
v -0.500000 -1.500000 -1.050000
v -0.500000 1.500000 -1.050000
v 0.500000 -1.500000 1.050000
v 0.500000 1.500000 1.050000
v 0.500000 -1.500000 -1.050000
v 0.500000 1.500000 -1.050000
v 1.000000 4.000000 -1.000000
v 1.000000 2.000000 -1.000000
v 1.000000 2.000000 1.000000
v 1.000000 4.000000 1.000000
v 2.024422 3.200000 -0.200000
v 2.024422 2.800000 -0.200000
v 2.024422 2.800000 0.200000
v 2.024422 3.200000 0.200000
vt 0.427273 0.148515
vt 0.518182 0.049505
vt 0.518182 0.148515
vt 0.227273 0.445545
vt 0.318182 0.346535
vt 0.318182 0.445545
vt 0.081818 0.405941
vt 0.100000 0.405941
vt 0.100000 0.405941
vt 0.409091 0.346535
vt 0.500000 0.445545
vt 0.409091 0.445545
vt 0.227273 0.643564
vt 0.318182 0.544554
vt 0.318182 0.643564
vt 0.136364 0.643564
vt 0.045455 0.544554
vt 0.136364 0.544554
vt 0.586364 0.074257
vt 0.631818 0.222772
vt 0.586364 0.222772
vt 0.568182 0.668317
vt 0.613636 0.816832
vt 0.568182 0.816832
vt 0.813636 0.222772
vt 0.768182 0.074257
vt 0.813636 0.074257
vt 0.840909 0.371287
vt 0.886364 0.519802
vt 0.840909 0.519802
vt 0.659091 0.915842
vt 0.704545 0.965347
vt 0.659091 0.965347
vt 0.840909 0.915842
vt 0.886364 0.965347
vt 0.840909 0.965347
vt 0.750000 0.668317
vt 0.795455 0.816832
vt 0.750000 0.816832
vt 0.840909 0.668317
vt 0.886364 0.816832
vt 0.840909 0.816832
vt 0.977273 0.519802
vt 0.931818 0.371287
vt 0.977273 0.371287
vt 0.677273 0.074257
vt 0.722727 0.222772
vt 0.677273 0.222772
vt 0.540909 0.272277
vt 0.495454 0.222772
vt 0.540909 0.222772
vt 0.795455 0.965347
vt 0.750000 0.915842
vt 0.795455 0.915842
vt 0.659091 0.816832
vt 0.704545 0.668317
vt 0.704545 0.816832
vt 0.568182 0.915842
vt 0.613636 0.965347
vt 0.568182 0.965347
vt 0.386364 0.717822
vt 0.431818 0.569307
vt 0.431818 0.717822
vt 0.477273 0.915842
vt 0.522727 0.965347
vt 0.477273 0.965347
vt 0.904545 0.074257
vt 0.859091 0.222772
vt 0.859091 0.074257
vt 0.204545 0.915842
vt 0.250000 0.767327
vt 0.250000 0.915842
vt 0.659091 0.519802
vt 0.704545 0.371287
vt 0.704545 0.519802
vt 0.477273 0.816832
vt 0.522727 0.866337
vt 0.477273 0.866337
vt 0.568182 0.519802
vt 0.613636 0.371287
vt 0.613636 0.519802
vt 0.404545 0.222772
vt 0.450000 0.272277
vt 0.404545 0.272277
vt 0.068182 0.767327
vt 0.022727 0.915842
vt 0.022727 0.767327
vt 0.295455 0.915841
vt 0.340909 0.767327
vt 0.340909 0.915842
vt 0.431818 0.844059
vt 0.386364 0.948020
vt 0.386364 0.844059
vt 0.931818 0.750000
vt 0.977273 0.646040
vt 0.977273 0.750000
vt 0.750000 0.371287
vt 0.795455 0.519802
vt 0.750000 0.519802
vt 0.334091 0.222772
vt 0.238636 0.074257
vt 0.334091 0.074257
vt 0.113636 0.767327
vt 0.159091 0.915842
vt 0.113636 0.915842
vt 0.047727 0.074257
vt 0.143182 0.222772
vt 0.047727 0.222772
vt 0.045455 0.445545
vt 0.100000 0.386139
vt 0.136364 0.445545
vt 0.045455 0.346535
vt 0.081818 0.386139
vt 0.136364 0.346535
vt 0.081818 0.405941
vt 0.100000 0.386139
vt 0.081818 0.386139
vt 0.427273 0.049505
vt 0.227273 0.346535
vt 0.500000 0.346535
vt 0.227273 0.544554
vt 0.045455 0.643564
vt 0.631818 0.074257
vt 0.613636 0.668317
vt 0.768182 0.222772
vt 0.886364 0.371287
vt 0.704545 0.915842
vt 0.886364 0.915842
vt 0.795455 0.668317
vt 0.886364 0.668317
vt 0.931818 0.519802
vt 0.722727 0.074257
vt 0.495454 0.272277
vt 0.750000 0.965347
vt 0.659091 0.668317
vt 0.613636 0.915842
vt 0.386364 0.569307
vt 0.522727 0.915842
vt 0.904545 0.222772
vt 0.204545 0.767327
vt 0.659091 0.371287
vt 0.522727 0.816832
vt 0.568182 0.371287
vt 0.450000 0.222772
vt 0.068182 0.915842
vt 0.295455 0.767327
vt 0.431818 0.948020
vt 0.931818 0.646040
vt 0.795455 0.371287
vt 0.238636 0.222772
vt 0.159091 0.767327
vt 0.143182 0.074257
vn -1.0000 0.0000 0.0000
vn 0.0000 0.0000 -1.0000
vn 0.0000 0.0000 1.0000
vn 0.0000 -1.0000 0.0000
vn 0.0000 1.0000 0.0000
vn 1.0000 0.0000 0.0000
usemtl マテリアル
s off
f 2/1/1 3/2/1 1/3/1
f 4/4/2 50/5/2 3/6/2
f 8/7/2 54/8/2 7/9/2
f 52/10/3 1/11/3 51/12/3
f 50/13/4 1/14/4 3/15/4
f 4/16/5 52/17/5 49/18/5
f 10/19/1 11/20/1 9/21/1
f 12/22/2 15/23/2 11/24/2
f 16/25/6 13/26/6 15/27/6
f 14/28/3 9/29/3 13/30/3
f 15/31/4 9/32/4 11/33/4
f 12/34/5 14/35/5 16/36/5
f 18/37/1 19/38/1 17/39/1
f 20/40/2 23/41/2 19/42/2
f 24/43/6 21/44/6 23/45/6
f 22/46/3 17/47/3 21/48/3
f 23/49/4 17/50/4 19/51/4
f 20/52/5 22/53/5 24/54/5
f 26/55/1 27/56/1 25/57/1
f 28/58/2 31/59/2 27/60/2
f 32/61/6 29/62/6 31/63/6
f 30/64/3 25/65/3 29/66/3
f 31/67/4 25/68/4 27/69/4
f 28/70/5 30/71/5 32/72/5
f 34/73/1 35/74/1 33/75/1
f 36/76/2 39/77/2 35/78/2
f 40/79/6 37/80/6 39/81/6
f 38/82/3 33/83/3 37/84/3
f 39/85/4 33/86/4 35/87/4
f 36/88/5 38/89/5 40/90/5
f 47/91/4 41/92/4 43/93/4
f 44/94/5 46/95/5 48/96/5
f 46/97/3 41/98/3 45/99/3
f 48/100/6 45/101/6 47/102/6
f 44/103/2 47/104/2 43/105/2
f 42/106/1 43/107/1 41/108/1
f 7/9/6 49/109/6 8/7/6
f 5/110/6 50/111/6 7/9/6
f 8/7/6 52/112/6 6/113/6
f 6/113/6 51/114/6 5/110/6
f 53/115/6 55/116/6 54/8/6
f 5/110/3 56/117/3 6/113/3
f 7/9/4 55/116/4 5/110/4
f 6/113/5 53/115/5 8/7/5
f 2/1/1 4/118/1 3/2/1
f 4/4/2 49/119/2 50/5/2
f 8/7/2 53/115/2 54/8/2
f 52/10/3 2/120/3 1/11/3
f 50/13/4 51/121/4 1/14/4
f 4/16/5 2/122/5 52/17/5
f 10/19/1 12/123/1 11/20/1
f 12/22/2 16/124/2 15/23/2
f 16/25/6 14/125/6 13/26/6
f 14/28/3 10/126/3 9/29/3
f 15/31/4 13/127/4 9/32/4
f 12/34/5 10/128/5 14/35/5
f 18/37/1 20/129/1 19/38/1
f 20/40/2 24/130/2 23/41/2
f 24/43/6 22/131/6 21/44/6
f 22/46/3 18/132/3 17/47/3
f 23/49/4 21/133/4 17/50/4
f 20/52/5 18/134/5 22/53/5
f 26/55/1 28/135/1 27/56/1
f 28/58/2 32/136/2 31/59/2
f 32/61/6 30/137/6 29/62/6
f 30/64/3 26/138/3 25/65/3
f 31/67/4 29/139/4 25/68/4
f 28/70/5 26/140/5 30/71/5
f 34/73/1 36/141/1 35/74/1
f 36/76/2 40/142/2 39/77/2
f 40/79/6 38/143/6 37/80/6
f 38/82/3 34/144/3 33/83/3
f 39/85/4 37/145/4 33/86/4
f 36/88/5 34/146/5 38/89/5
f 47/91/4 45/147/4 41/92/4
f 44/94/5 42/148/5 46/95/5
f 46/97/3 42/149/3 41/98/3
f 48/100/6 46/150/6 45/101/6
f 44/103/2 48/151/2 47/104/2
f 42/106/1 44/152/1 43/107/1
f 7/9/6 50/111/6 49/109/6
f 5/110/6 51/114/6 50/111/6
f 8/7/6 49/109/6 52/112/6
f 6/113/6 52/112/6 51/114/6
f 53/115/6 56/117/6 55/116/6
f 5/110/3 55/116/3 56/117/3
f 7/9/4 54/8/4 55/116/4
f 6/113/5 56/117/5 53/115/5
