# Blender v2.92.0 OBJ File: 'human.blend'
# www.blender.org
mtllib human2.mtl
o head_立方体.003
v -0.200000 0.413547 -0.189666
v -0.200000 0.812581 -0.161888
v 0.200000 0.413547 -0.189666
v 0.200000 0.812581 -0.161888
v -0.040000 0.545382 0.220480
v -0.040000 0.625189 0.226036
v 0.040000 0.545382 0.220480
v 0.040000 0.625189 0.226036
v 0.191041 -0.944040 -0.333583
v 0.061520 -0.376994 -0.182895
v 0.371726 -0.926597 -0.249626
v 0.249108 -0.357611 -0.103953
v 0.115659 -1.005066 -0.158673
v 0.006318 -0.412026 0.039497
v 0.296344 -0.987622 -0.074716
v 0.177524 -0.417246 0.069187
v -0.394148 -0.946707 0.044746
v -0.224481 -0.396059 -0.128059
v -0.202534 -1.003841 0.049175
v -0.015332 -0.404984 -0.140281
v -0.381948 -0.890931 0.236423
v -0.213974 -0.340819 0.065654
v -0.190334 -0.948064 0.240853
v -0.020900 -0.398828 0.068190
v 0.181397 0.140935 -0.127097
v 0.338369 0.264144 -0.113697
v 0.517063 -0.253815 -0.429588
v 0.674034 -0.130606 -0.416189
v 0.234698 0.054302 0.045106
v 0.391669 0.177511 0.058505
v 0.570363 -0.340448 -0.257385
v 0.727335 -0.217240 -0.243986
v -0.626825 0.345181 0.534881
v -0.772902 0.340656 0.398348
v -0.241526 0.127204 0.129874
v -0.387603 0.122679 -0.006659
v -0.580279 0.531461 0.478906
v -0.726355 0.526936 0.342373
v -0.194979 0.313484 0.073899
v -0.341056 0.308959 -0.062634
v -0.204089 -0.298309 -0.146502
v -0.210000 0.306843 -0.096851
v 0.219336 -0.277244 -0.109096
v 0.210000 0.306843 -0.096851
v -0.197989 -0.277366 0.049096
v -0.210000 0.292954 0.102666
v 0.181645 -0.314702 0.078117
v 0.210000 0.292954 0.102666
v 0.200000 0.784803 0.237147
v 0.200000 0.385769 0.209369
v -0.200000 0.385769 0.209369
v -0.200000 0.784803 0.237147
v 0.040000 0.610961 0.430425
v 0.040000 0.531154 0.424870
v -0.040000 0.531154 0.424870
v -0.040000 0.610961 0.430425
vt 0.427273 0.148515
vt 0.518182 0.049505
vt 0.518182 0.148515
vt 0.227273 0.445545
vt 0.318182 0.346535
vt 0.318182 0.445545
vt 0.100000 0.405941
vt 0.081818 0.405941
vt 0.100000 0.405941
vt 0.409091 0.346535
vt 0.500000 0.445545
vt 0.409091 0.445545
vt 0.227273 0.643564
vt 0.318182 0.544554
vt 0.318182 0.643564
vt 0.136364 0.643564
vt 0.045455 0.544554
vt 0.136364 0.544554
vt 0.586364 0.222772
vt 0.631818 0.074257
vt 0.631818 0.222772
vt 0.568182 0.816832
vt 0.613636 0.668317
vt 0.613636 0.816832
vt 0.813636 0.222772
vt 0.768182 0.074257
vt 0.813636 0.074257
vt 0.840909 0.519802
vt 0.886364 0.371287
vt 0.886364 0.519802
vt 0.659091 0.915842
vt 0.704545 0.965347
vt 0.659091 0.965347
vt 0.840909 0.965347
vt 0.886364 0.915842
vt 0.886364 0.965347
vt 0.750000 0.668317
vt 0.795455 0.816832
vt 0.750000 0.816832
vt 0.840909 0.816832
vt 0.886364 0.668317
vt 0.886364 0.816832
vt 0.977273 0.371287
vt 0.931818 0.519802
vt 0.931818 0.371287
vt 0.677273 0.074257
vt 0.722727 0.222772
vt 0.677273 0.222772
vt 0.540909 0.272277
vt 0.495454 0.222772
vt 0.540909 0.222772
vt 0.795455 0.915842
vt 0.750000 0.965347
vt 0.750000 0.915842
vt 0.659091 0.816832
vt 0.704545 0.668317
vt 0.704545 0.816832
vt 0.568182 0.965347
vt 0.613636 0.915842
vt 0.613636 0.965347
vt 0.431818 0.717822
vt 0.386364 0.569307
vt 0.431818 0.569307
vt 0.477273 0.915842
vt 0.522727 0.965347
vt 0.477273 0.965347
vt 0.904545 0.074257
vt 0.859091 0.222772
vt 0.859091 0.074257
vt 0.204545 0.915842
vt 0.250000 0.767327
vt 0.250000 0.915842
vt 0.659091 0.519802
vt 0.704545 0.371287
vt 0.704545 0.519802
vt 0.477273 0.816832
vt 0.522727 0.866337
vt 0.477273 0.866337
vt 0.568182 0.519802
vt 0.613636 0.371287
vt 0.613636 0.519802
vt 0.404545 0.222772
vt 0.450000 0.272277
vt 0.404545 0.272277
vt 0.068182 0.767327
vt 0.022727 0.915842
vt 0.022727 0.767327
vt 0.295455 0.915841
vt 0.340909 0.767327
vt 0.340909 0.915842
vt 0.386364 0.844059
vt 0.431818 0.948020
vt 0.386364 0.948020
vt 0.931818 0.750000
vt 0.977273 0.646040
vt 0.977273 0.750000
vt 0.750000 0.519802
vt 0.795455 0.371287
vt 0.795455 0.519802
vt 0.334091 0.222772
vt 0.238636 0.074257
vt 0.334091 0.074257
vt 0.113636 0.915842
vt 0.159091 0.767327
vt 0.159091 0.915842
vt 0.047727 0.074257
vt 0.143182 0.222772
vt 0.047727 0.222772
vt 0.081818 0.405941
vt 0.136364 0.445545
vt 0.045455 0.445545
vt 0.100000 0.386139
vt 0.045455 0.346535
vt 0.081818 0.386139
vt 0.136364 0.346535
vt 0.100000 0.386139
vt 0.081818 0.386139
vt 0.427273 0.049505
vt 0.227273 0.346535
vt 0.500000 0.346535
vt 0.227273 0.544554
vt 0.045455 0.643564
vt 0.586364 0.074257
vt 0.568182 0.668317
vt 0.768182 0.222772
vt 0.840909 0.371287
vt 0.704545 0.915842
vt 0.840909 0.915842
vt 0.795455 0.668317
vt 0.840909 0.668317
vt 0.977273 0.519802
vt 0.722727 0.074257
vt 0.495454 0.272277
vt 0.795455 0.965347
vt 0.659091 0.668317
vt 0.568182 0.915842
vt 0.386364 0.717822
vt 0.522727 0.915842
vt 0.904545 0.222772
vt 0.204545 0.767327
vt 0.659091 0.371287
vt 0.522727 0.816832
vt 0.568182 0.371287
vt 0.450000 0.222772
vt 0.068182 0.915842
vt 0.295455 0.767327
vt 0.431818 0.844059
vt 0.931818 0.646040
vt 0.750000 0.371287
vt 0.238636 0.222772
vt 0.113636 0.767327
vt 0.143182 0.074257
vn 0.0000 0.0694 -0.9976
vn 1.0000 0.0000 0.0000
vn -1.0000 0.0000 -0.0000
vn 0.0000 -0.9976 -0.0694
vn -0.0000 0.9976 0.0694
vn 0.3769 0.3051 -0.8745
vn 0.9044 0.0828 0.4186
vn -0.3781 -0.2997 0.8759
vn -0.9019 -0.0940 -0.4215
vn 0.2044 -0.9483 -0.2428
vn 0.0030 0.9877 0.1563
vn -0.0618 -0.2815 -0.9576
vn 0.9573 -0.2881 0.0229
vn 0.0610 0.2789 0.9584
vn -0.9581 0.2857 -0.0221
vn -0.2800 -0.9169 0.2846
vn 0.2798 0.9191 -0.2773
vn -0.2665 0.4332 -0.8610
vn 0.5594 -0.6579 -0.5042
vn 0.2665 -0.4332 0.8610
vn -0.5594 0.6579 0.5042
vn -0.7849 -0.6160 -0.0670
vn 0.7849 0.6160 0.0670
vn -0.2327 -0.9314 0.2799
vn 0.6422 -0.3633 -0.6750
vn 0.2327 0.9314 -0.2799
vn -0.6422 0.3633 0.6750
vn 0.7304 0.0226 0.6827
vn -0.7304 -0.0226 -0.6827
vn 0.0401 -0.9936 0.1051
vn -0.9994 -0.0124 0.0325
vn -0.0797 -0.0365 0.9961
vn 0.9809 -0.0533 0.1868
vn 0.0836 0.0823 -0.9931
vn 0.0000 -0.0694 0.9976
vn 0.3407 0.3134 -0.8864
vn 0.9087 0.0916 0.4072
vn -0.1707 -0.3405 0.9246
vn -0.9628 -0.0928 -0.2536
vn -0.2007 0.9488 0.2438
vn -0.0679 -0.2816 -0.9571
vn 0.9569 -0.2884 0.0341
vn 0.0713 0.2791 0.9576
vn -0.9578 0.2858 -0.0296
vn 0.0410 0.9988 -0.0284
vn -0.0797 -0.9742 -0.2110
vn -0.9998 -0.0209 -0.0015
vn -0.0000 -0.0935 0.9956
vn 0.9999 0.0160 0.0011
vn 0.0000 0.0210 -0.9998
usemtl マテリアル
s off
f 2/1/1 3/2/1 1/3/1
f 4/4/2 50/5/2 3/6/2
f 7/7/2 53/8/2 54/9/2
f 52/10/3 1/11/3 51/12/3
f 50/13/4 1/14/4 3/15/4
f 4/16/5 52/17/5 49/18/5
f 9/19/6 12/20/6 11/21/6
f 11/22/7 16/23/7 15/24/7
f 16/25/8 13/26/8 15/27/8
f 13/28/9 10/29/9 9/30/9
f 15/31/10 9/32/10 11/33/10
f 16/34/11 10/35/11 14/36/11
f 18/37/12 19/38/12 17/39/12
f 19/40/13 24/41/13 23/42/13
f 23/43/14 22/44/14 21/45/14
f 22/46/15 17/47/15 21/48/15
f 23/49/16 17/50/16 19/51/16
f 24/52/17 18/53/17 22/54/17
f 26/55/18 27/56/18 25/57/18
f 27/58/19 32/59/19 31/60/19
f 31/61/20 30/62/20 29/63/20
f 30/64/21 25/65/21 29/66/21
f 31/67/22 25/68/22 27/69/22
f 28/70/23 30/71/23 32/72/23
f 34/73/24 35/74/24 33/75/24
f 36/76/25 39/77/25 35/78/25
f 40/79/26 37/80/26 39/81/26
f 38/82/27 33/83/27 37/84/27
f 39/85/28 33/86/28 35/87/28
f 36/88/29 38/89/29 40/90/29
f 43/91/30 45/92/30 41/93/30
f 44/94/5 46/95/5 48/96/5
f 45/97/31 42/98/31 41/99/31
f 48/100/32 45/101/32 47/102/32
f 43/103/33 48/104/33 47/105/33
f 42/106/34 43/107/34 41/108/34
f 8/109/35 50/110/35 49/111/35
f 5/112/35 50/110/35 7/7/35
f 8/109/35 52/113/35 6/114/35
f 5/112/35 52/113/35 51/115/35
f 53/8/35 55/116/35 54/9/35
f 5/112/3 56/117/3 6/114/3
f 7/7/4 55/116/4 5/112/4
f 6/114/5 53/8/5 8/109/5
f 2/1/1 4/118/1 3/2/1
f 4/4/2 49/119/2 50/5/2
f 7/7/2 8/109/2 53/8/2
f 52/10/3 2/120/3 1/11/3
f 50/13/4 51/121/4 1/14/4
f 4/16/5 2/122/5 52/17/5
f 9/19/36 10/123/36 12/20/36
f 11/22/37 12/124/37 16/23/37
f 16/25/38 14/125/38 13/26/38
f 13/28/39 14/126/39 10/29/39
f 15/31/10 13/127/10 9/32/10
f 16/34/40 12/128/40 10/35/40
f 18/37/41 20/129/41 19/38/41
f 19/40/42 20/130/42 24/41/42
f 23/43/43 24/131/43 22/44/43
f 22/46/44 18/132/44 17/47/44
f 23/49/16 21/133/16 17/50/16
f 24/52/45 20/134/45 18/53/45
f 26/55/18 28/135/18 27/56/18
f 27/58/19 28/136/19 32/59/19
f 31/61/20 32/137/20 30/62/20
f 30/64/21 26/138/21 25/65/21
f 31/67/22 29/139/22 25/68/22
f 28/70/23 26/140/23 30/71/23
f 34/73/24 36/141/24 35/74/24
f 36/76/25 40/142/25 39/77/25
f 40/79/26 38/143/26 37/80/26
f 38/82/27 34/144/27 33/83/27
f 39/85/28 37/145/28 33/86/28
f 36/88/29 34/146/29 38/89/29
f 43/91/46 47/147/46 45/92/46
f 44/94/5 42/148/5 46/95/5
f 45/97/47 46/149/47 42/98/47
f 48/100/48 46/150/48 45/101/48
f 43/103/49 44/151/49 48/104/49
f 42/106/50 44/152/50 43/107/50
f 8/109/35 7/7/35 50/110/35
f 5/112/35 51/115/35 50/110/35
f 8/109/35 49/111/35 52/113/35
f 5/112/35 6/114/35 52/113/35
f 53/8/35 56/117/35 55/116/35
f 5/112/3 55/116/3 56/117/3
f 7/7/4 54/9/4 55/116/4
f 6/114/5 56/117/5 53/8/5
